<svg width="44" height="41" viewBox="0 0 44 41" fill="none" xmlns="http://www.w3.org/2000/svg">
<path fill-rule="evenodd" clip-rule="evenodd" d="M37.2352 5.95789C35.2475 4.06171 32.886 2.55912 30.2868 1.53663C27.6876 0.51414 24.9019 -0.00805943 22.0902 9.40249e-05C10.2902 9.40249e-05 0.684285 9.11342 0.679486 20.317C0.674266 23.8845 1.66051 27.3896 3.53783 30.4755L0.5 41L11.8499 38.1749C14.9916 39.7977 18.5085 40.647 22.0816 40.6458H22.0902C33.8893 40.6458 43.4942 31.5316 43.4999 20.3289C43.5071 17.6571 42.9569 15.0106 41.8814 12.5434C40.8059 10.0763 39.2265 7.83767 37.2352 5.95789ZM22.0902 37.2167H22.0825C18.8972 37.2176 15.7699 36.4048 13.0257 34.8628L12.3759 34.4968L5.6408 36.1734L7.43854 29.9419L7.01526 29.3013C5.2342 26.6127 4.29057 23.497 4.29417 20.317C4.29417 11.0069 12.2808 3.43201 22.0969 3.43201C26.8058 3.42399 31.3252 5.1997 34.661 8.36858C37.9969 11.5375 39.8761 15.84 39.8852 20.3298C39.8814 29.6408 31.8986 37.2167 22.0902 37.2167ZM31.8506 24.5698C31.316 24.3154 28.6832 23.0873 28.1956 22.9179C27.708 22.7486 27.3481 22.6635 26.992 23.1724C26.6359 23.6812 25.6098 24.8197 25.2979 25.1629C24.986 25.5061 24.674 25.5436 24.1394 25.2892C23.6048 25.0347 21.88 24.4994 19.8365 22.7697C18.2461 21.4235 17.173 19.7615 16.8611 19.2536C16.5491 18.7457 16.8275 18.4702 17.0953 18.2176C17.3362 17.9897 17.6299 17.6246 17.8977 17.328C18.1655 17.0315 18.2547 16.8192 18.4323 16.4806C18.6099 16.142 18.5216 15.8455 18.3882 15.592C18.2547 15.3385 17.1845 12.8391 16.7392 11.8223C16.3044 10.8321 15.8638 10.9667 15.5356 10.9511C15.2236 10.9365 14.8637 10.9328 14.5095 10.9328C14.2388 10.9395 13.9724 10.9994 13.727 11.1087C13.4816 11.2179 13.2624 11.3743 13.0832 11.5679C12.5928 12.0768 11.2106 13.3068 11.2106 15.8034C11.2106 18.3 13.1303 20.716 13.3952 21.0546C13.6601 21.3933 17.1673 26.521 22.5336 28.7202C23.5301 29.1271 24.5483 29.4839 25.5839 29.7891C26.8653 30.1753 28.0315 30.1213 28.9529 29.9904C29.9809 29.8449 32.1203 28.7623 32.5647 27.5762C33.0091 26.3901 33.0101 25.3743 32.8766 25.1629C32.7432 24.9515 32.3862 24.8233 31.8506 24.5698Z" fill="white"/>
</svg>
